HIERARCHY
ROOT Hips
{
	OFFSET 181.407898 92.019173 39.530121
	CHANNELS 6 Xposition Yposition Zposition Zrotation Yrotation Xrotation 
	JOINT LeftUpLeg
	{
		OFFSET 0.103458 1.857830 10.548511
		CHANNELS 3 Zrotation Yrotation Xrotation
		JOINT LeftLeg
		{
			OFFSET 43.500000 -0.000034 0.000002
			CHANNELS 3 Zrotation Yrotation Xrotation
			JOINT LeftFoot
			{
				OFFSET 42.372192 0.000015 -0.000005
				CHANNELS 3 Zrotation Yrotation Xrotation
				JOINT LeftToe
				{
					OFFSET 17.299999 -0.000002 0.000006
					CHANNELS 3 Zrotation Yrotation Xrotation
					End Site
					{
						OFFSET 0.000000 0.000000 0.000000
					}
				}
			}
		}
	}
	JOINT RightUpLeg
	{
		OFFSET 0.103456 1.857828 -10.548506
		CHANNELS 3 Zrotation Yrotation Xrotation
		JOINT RightLeg
		{
			OFFSET 43.500038 -0.000023 0.000004
			CHANNELS 3 Zrotation Yrotation Xrotation
			JOINT RightFoot
			{
				OFFSET 42.372265 -0.000004 0.000015
				CHANNELS 3 Zrotation Yrotation Xrotation
				JOINT RightToe
				{
					OFFSET 17.299994 -0.000005 -0.000004
					CHANNELS 3 Zrotation Yrotation Xrotation
					End Site
					{
						OFFSET 0.000000 0.000000 0.000000
					}
				}
			}
		}
	}
	JOINT Spine
	{
		OFFSET 6.901968 -2.603730 -0.000005
		CHANNELS 3 Zrotation Yrotation Xrotation
		JOINT Spine1
		{
			OFFSET 12.588101 -0.000001 0.000008
			CHANNELS 3 Zrotation Yrotation Xrotation
			JOINT Spine2
			{
				OFFSET 12.343199 -0.000002 0.000004
				CHANNELS 3 Zrotation Yrotation Xrotation
				JOINT Neck
				{
					OFFSET 25.832901 -0.000004 -0.000011
					CHANNELS 3 Zrotation Yrotation Xrotation
					JOINT Head
					{
						OFFSET 11.766607 0.000005 0.000000
						CHANNELS 3 Zrotation Yrotation Xrotation
						End Site
						{
							OFFSET 0.000000 0.000000 0.000000
						}
					}
				}
				JOINT LeftShoulder
				{
					OFFSET 19.745911 -1.480373 6.000101
					CHANNELS 3 Zrotation Yrotation Xrotation
					JOINT LeftArm
					{
						OFFSET 11.284123 -0.000010 -0.000027
						CHANNELS 3 Zrotation Yrotation Xrotation
						JOINT LeftForeArm
						{
							OFFSET 33.000042 0.000003 0.000027
							CHANNELS 3 Zrotation Yrotation Xrotation
							JOINT LeftHand
							{
								OFFSET 25.200010 0.000018 0.000014
								CHANNELS 3 Zrotation Yrotation Xrotation
								End Site
								{
									OFFSET 0.000000 0.000000 0.000000
								}
							}
						}
					}
				}
				JOINT RightShoulder
				{
					OFFSET 19.746101 -1.480375 -6.000073
					CHANNELS 3 Zrotation Yrotation Xrotation
					JOINT RightArm
					{
						OFFSET 11.284151 -0.000017 -0.000003
						CHANNELS 3 Zrotation Yrotation Xrotation
						JOINT RightForeArm
						{
							OFFSET 33.000095 0.000018 0.000001
							CHANNELS 3 Zrotation Yrotation Xrotation
							JOINT RightHand
							{
								OFFSET 25.199774 0.000135 0.000424
								CHANNELS 3 Zrotation Yrotation Xrotation
								End Site
								{
									OFFSET 0.000000 0.000000 0.000000
								}
							}
						}
					}
				}
			}
		}
	}
}
MOTION
Frames: 12
Frame Time: 0.033333
304.553314 15.415420 47.768929 93.171048 -54.828428 -95.452693 95.275825 -12.844493 -157.512563 -146.759004 2.973469 -3.601636 88.763281 2.011366 -0.903196 21.454551 0.003101 0.000001 92.400718 15.344701 -176.918743 -127.378192 -4.589438 6.267732 72.709181 -4.075890 0.187598 21.454560 -0.003114 -0.000019 17.756154 0.776759 2.184994 25.521454 1.053230 4.487380 25.204359 1.080425 4.480978 14.576083 9.392411 -2.123240 -29.984848 2.059572 -1.811682 167.623142 -75.385529 11.274466 26.014391 59.387586 55.916959 -15.459641 -12.580248 0.874098 14.137631 -50.589213 -14.698781 95.856637 72.105699 -84.173073 64.931494 -73.540100 -75.485605 -30.842856 14.908951 -1.266722 65.894202 41.058856 58.443333 
303.993591 14.899400 49.980381 90.717971 -55.126324 -92.236780 93.515945 -11.004697 -162.212362 -144.564697 3.312864 -4.695869 85.084691 2.998731 0.230710 21.454555 0.003095 0.000002 93.505836 16.158797 -177.992981 -117.113593 -3.701347 6.742958 70.623275 -3.902182 1.945011 21.454558 -0.003126 -0.000026 17.637591 0.485604 2.225102 25.272033 0.474231 4.502367 24.954982 0.501518 4.499449 13.550579 7.305923 -3.039785 -29.252986 3.154753 -3.578801 168.186824 -76.603003 10.649714 26.515769 60.439108 50.758397 -18.179935 -13.704866 0.970855 8.205546 -57.725289 -11.457231 92.556235 71.897713 -87.477894 65.821502 -74.346882 -77.524922 -31.996953 15.090803 -1.302058 67.548153 39.210917 58.925797 
303.356110 14.335170 52.320648 88.739771 -54.626279 -89.455520 90.986091 -9.667209 -166.527238 -142.391904 3.597900 -5.605287 82.736431 3.956329 1.532421 21.454555 0.003088 -0.000001 94.918094 16.728189 -178.883843 -107.306302 -2.636515 7.190086 70.279792 -3.844782 3.253085 21.454562 -0.003108 -0.000014 17.531600 0.363797 1.993757 25.055574 0.287820 4.018812 24.738320 0.312200 4.017034 11.782943 4.026410 -3.242734 -28.259822 3.826998 -4.556555 164.670287 -79.438782 14.109497 30.079890 63.459356 51.836922 -22.339406 -14.425703 1.066611 2.663856 -59.297237 -4.395477 87.988191 71.463989 -92.055616 64.623111 -75.435232 -76.340246 -32.724946 15.414830 -1.338326 67.981986 38.495978 58.149649 
302.487488 13.806300 54.715530 86.592735 -53.617344 -87.350108 89.107925 -9.287600 -171.258920 -139.865909 3.847325 -6.254520 79.975894 4.843286 2.974192 21.454553 0.003097 0.000000 96.108746 16.657395 179.424398 -98.542390 -1.402860 6.811753 70.512455 -3.315261 4.248773 21.454558 -0.003112 -0.000024 17.484895 0.133388 1.656103 24.955630 -0.093075 3.301885 24.638113 -0.073003 3.302409 9.143120 0.986179 -3.301556 -27.055377 4.763949 -5.517648 162.368978 -81.104439 16.366284 30.048178 66.068215 55.410019 -23.364252 -15.133350 1.125974 7.119175 -61.034543 -8.791115 87.194229 71.063822 -92.874091 57.318620 -76.379499 -68.332525 -32.777132 15.928027 -1.372452 67.318993 38.791274 56.426734 
301.545502 13.379910 57.285759 85.496469 -52.169682 -86.452532 87.693912 -9.519703 -175.260427 -136.570507 4.062740 -6.766516 75.199652 5.852959 4.559652 21.454553 0.003084 -0.000002 97.349047 15.894183 177.197510 -90.988816 0.244271 6.327877 69.615726 -2.554619 5.607339 21.454557 -0.003117 -0.000028 17.478825 -0.003807 1.375923 24.941272 -0.303718 2.718625 24.623559 -0.287160 2.720431 5.369122 -0.826561 -3.039206 -25.334293 4.804364 -5.539221 156.439732 -81.211953 22.362943 28.572812 68.236049 54.953148 -23.682955 -15.509780 1.154529 9.841900 -62.549991 -11.518424 86.822332 70.908558 -93.254178 46.083293 -76.985644 -57.505002 -32.749972 16.835674 -1.430170 66.918553 38.621158 55.187915 
300.513306 13.014760 60.041019 84.904347 -50.349119 -86.363712 86.366881 -10.048796 -178.200851 -133.009601 4.196335 -7.420872 70.698796 6.369256 3.972587 21.454551 0.003086 -0.000001 98.204842 14.472198 174.988217 -85.010652 1.589952 6.599978 67.837589 -2.534854 6.161168 21.454558 -0.003107 -0.000016 17.456451 -0.136074 1.102361 24.895512 -0.505832 2.149641 24.577637 -0.492707 2.152685 1.399887 -1.774160 -2.478730 -23.701890 4.095403 -4.824006 151.022668 -81.058178 27.851394 25.666077 70.073247 53.292681 -23.963777 -15.331760 1.147391 14.237746 -64.004323 -16.043373 86.435941 70.632298 -93.659604 32.122745 -77.162928 -43.108285 -32.393511 17.101469 -1.439550 66.014086 39.148906 53.630768 
299.472687 12.605990 62.562180 84.633994 -48.763354 -86.605986 85.156360 -10.554784 179.411161 -129.975208 4.260806 -8.104244 67.651104 6.834736 3.478977 21.454555 0.003086 -0.000003 98.977405 13.123504 173.357305 -80.892642 2.445920 7.363593 66.569640 -2.747229 7.053925 21.454558 -0.003100 -0.000009 17.475488 -0.224105 0.837934 24.934091 -0.623294 1.607939 24.616099 -0.613425 1.611693 -1.861041 -2.052095 -2.062151 -22.509228 3.293939 -4.120514 146.240115 -81.019526 32.687878 22.727760 71.723188 51.869181 -24.485943 -15.266226 1.151115 19.717332 -65.022527 -21.572557 86.476151 70.236543 -93.657302 19.462643 -76.496063 -29.531047 -32.389594 17.296329 -1.451958 64.852107 40.014168 51.599672 
298.367798 12.111580 65.028961 84.263436 -47.246802 -86.827906 84.059097 -10.789088 177.064581 -127.064099 4.258931 -8.517443 65.415508 7.072390 3.022049 21.454553 0.003081 -0.000002 99.650684 12.206610 172.435871 -78.202866 2.812643 7.659296 66.692638 -3.070785 6.817440 21.454553 -0.003111 -0.000018 17.481029 -0.315652 0.599083 24.946055 -0.752869 1.116127 24.627990 -0.745991 1.120673 -4.408799 -1.846754 -1.809677 -21.851433 2.466093 -3.462664 142.895371 -80.576753 36.098096 20.265634 72.790733 50.062879 -25.658113 -15.496816 1.184263 23.535247 -65.969730 -25.167063 86.316079 70.092658 -93.827852 9.516551 -75.399052 -18.813365 -32.667685 17.630776 -1.479408 63.739510 40.905709 49.543525 
297.409607 11.550640 66.948463 82.782036 -45.884863 -85.552716 83.288153 -10.748906 174.157079 -124.436607 4.184716 -8.671425 63.443230 7.274607 2.989981 21.454551 0.003094 0.000001 99.685211 12.446889 171.128682 -76.310500 2.946681 7.698259 65.055312 -3.006769 6.844095 21.454558 -0.003105 -0.000012 17.508481 -0.416960 0.199157 25.003658 -0.867076 0.303638 24.685519 -0.865090 0.308884 -6.425237 -1.488728 -1.641808 -21.750695 1.762513 -2.900545 139.430170 -80.422848 39.609005 17.696286 73.891438 48.842881 -26.695226 -15.782817 1.219690 27.970933 -66.770194 -29.497094 85.318905 70.047012 -94.810409 1.682210 -74.461452 -9.880617 -32.674460 17.943470 -1.499621 62.245358 41.937146 47.407995 
296.369995 11.044090 69.018341 82.190460 -44.533837 -85.648182 82.652078 -10.962604 172.390710 -121.723711 4.073748 -9.358261 61.238506 7.468169 2.017552 21.454553 0.003098 -0.000001 99.830386 12.200606 170.287654 -71.516035 3.238022 6.945260 62.861475 -3.145301 4.850104 21.454555 -0.003106 -0.000014 17.540923 -0.514956 0.010468 25.070387 -1.019990 -0.090714 24.752238 -1.020381 -0.084529 -8.778954 -0.930609 -1.574499 -21.098222 1.091004 -2.363493 136.721727 -80.584846 42.329722 14.656797 74.940603 47.094154 -28.236543 -16.113408 1.267883 31.373070 -67.526331 -32.563839 84.491612 69.718692 -95.651704 -3.691451 -73.310107 -3.082340 -33.474259 18.271333 -1.538283 60.911538 43.017491 45.223430 
295.291412 10.531620 71.128242 82.331585 -43.265966 -86.781877 81.983498 -11.351809 171.520189 -119.018792 3.941634 -9.980955 58.745023 7.421489 0.672130 21.454553 0.003099 0.000001 100.320309 11.585990 169.922061 -66.441676 3.444373 6.335870 61.586907 -2.539893 5.150056 21.454558 -0.003110 -0.000023 17.562148 -0.571371 0.003841 25.113257 -1.129971 -0.116209 24.795076 -1.130517 -0.109369 -10.826541 -0.563371 -1.625288 -20.600824 0.674981 -2.108218 134.770929 -80.714579 44.286598 11.860241 75.812115 45.184713 -30.331357 -16.546432 1.335255 33.086379 -68.470399 -33.675107 83.734035 69.693160 -96.396372 -6.976454 -71.674660 0.047747 -34.867371 18.658345 -1.595031 60.730743 43.174811 44.162101 
294.322388 10.021810 72.723930 81.927634 -42.368968 -87.067912 81.602305 -11.401797 170.286451 -116.794910 3.812338 -10.421652 56.647492 7.495438 -0.005196 21.454553 0.003093 0.000000 100.595887 11.754284 169.373351 -62.853607 3.619912 6.450042 60.979348 -2.226505 6.050023 21.454555 -0.003103 -0.000013 17.538789 -0.655879 -0.101979 25.068208 -1.274154 -0.343447 24.750034 -1.276078 -0.335726 -11.567452 -0.005747 -1.892236 -20.844255 0.388528 -2.044974 132.653612 -80.952823 46.401081 11.100542 76.487860 45.246216 -32.698465 -17.019802 1.414382 33.863385 -69.577395 -33.788434 83.276542 69.957878 -96.820397 -9.198185 -70.068261 2.480639 -36.096197 18.394840 -1.607271 59.907391 43.694240 42.534317 
